<svg width="99" height="26" viewBox="0 0 99 26" fill="none" xmlns="http://www.w3.org/2000/svg">
    <path
        d="M15.5419 7.86427H6.84388V6.78203C6.84388 6.58808 6.85422 6.41094 6.8762 6.2506C6.99128 5.38041 7.44642 5.00415 8.48988 4.95243C8.57392 4.94984 8.65926 4.94725 8.74848 4.94725H14.8592V0.938934H7.84855C7.7089 0.938934 7.56796 0.94152 7.43349 0.950571C4.43113 1.10185 2.49679 2.89913 2.20845 5.9558C2.1813 6.22086 2.16966 6.49627 2.16966 6.78203V7.86427H0V11.87H2.16966V24.5596H6.84517V11.87H13.0232V24.5596H17.6987V10.0158L15.5445 7.86427H15.5419Z"
        fill="#000000" />
    <path
        d="M29.8782 7.20065C28.1766 7.20065 27.106 7.93637 26.4401 8.63718C26.0393 9.03801 25.7393 9.50479 25.5376 10.0388H25.3708V7.53554H20.6953V24.5657H25.3708V15.5496C25.3708 13.1782 26.841 11.7081 29.3791 11.7081H31.8824V7.20065H29.8782Z"
        fill="#000000" />
    <path
        d="M58.8588 8.24679C58.8588 8.24679 58.8485 8.24162 58.8446 8.23645C58.7605 8.17438 58.6778 8.1162 58.5938 8.0593C58.3429 7.89251 58.0753 7.74381 57.7895 7.61968C56.9193 7.22661 55.9004 7.02878 54.7574 7.02878C52.6201 7.02878 51.3516 7.83044 50.4491 8.63211C49.95 9.09888 49.5492 9.63289 49.2492 10.2005H49.0824C48.7824 9.63289 48.3816 9.09888 47.8799 8.63211C47.4894 8.28558 47.0071 7.93905 46.4098 7.65847C46.2352 7.57443 46.0529 7.49814 45.8589 7.4322C45.1749 7.18652 44.3668 7.02878 43.4074 7.02878C41.5364 7.02878 40.3339 7.7645 39.5335 8.46531C39.0668 8.86614 38.697 9.33291 38.397 9.86693H38.2302V7.53046H33.5547V24.5606H38.2302V15.3777C38.2302 12.7064 39.8995 11.0371 41.9049 11.0371C42.1635 11.0371 42.4092 11.0565 42.6381 11.0966C42.7001 11.1043 42.7583 11.116 42.8152 11.1289C42.8669 11.1405 42.9161 11.1509 42.9626 11.1664C43.0169 11.178 43.0686 11.1961 43.1178 11.2104C44.3694 11.6138 45.0754 12.74 45.0754 14.7105V24.5619H49.7509V15.379C49.7509 12.7077 51.4202 11.0384 53.4256 11.0384C53.745 11.0384 54.0424 11.0681 54.3178 11.1263C54.429 11.1483 54.5311 11.1754 54.632 11.2104C54.6759 11.2233 54.7199 11.2401 54.7652 11.2543C54.8634 11.2918 54.9565 11.3332 55.0483 11.3772C56.0439 11.884 56.5973 12.9663 56.5973 14.7092V24.5606H61.2729V14.2101C61.2729 11.4237 60.4078 9.41955 58.8627 8.24679H58.8588Z"
        fill="#000000" />
    <path
        d="M76.2933 7.52878V16.5449C76.2933 19.2163 74.456 21.0523 72.285 21.0523C72.1493 21.0523 72.0174 21.0472 71.8894 21.0381C71.57 21.0135 71.2752 20.9566 70.9985 20.8687C70.8317 20.817 70.6739 20.7536 70.5239 20.6774C70.5188 20.6774 70.5136 20.6748 70.5123 20.6722C69.4133 20.1188 68.781 18.9577 68.781 17.2147V7.52878H64.1055V17.8793C64.1055 22.2988 66.3113 24.7452 70.0352 25.0283C70.2783 25.0477 70.5265 25.0581 70.7825 25.0581C71.0205 25.0581 71.2493 25.0477 71.4691 25.0257C73.0065 24.8835 74.103 24.268 74.893 23.6564C75.3921 23.2556 75.8279 22.7888 76.1278 22.2199H76.2946V24.559H80.9701V7.52878H76.2946H76.2933Z"
        fill="#000000" />
    <path
        d="M98.7345 17.9211C98.6479 17.6806 98.5457 17.4543 98.4242 17.2422C98.3453 17.0974 98.2574 16.9617 98.1617 16.8311C97.1726 15.4656 95.4412 14.748 93.7552 14.3743C91.8635 13.9683 89.9705 13.6632 89.0538 13.071C89.0512 13.0658 89.0486 13.0658 89.0486 13.0658C88.9309 12.9895 88.8301 12.9055 88.746 12.8202C88.6892 12.7607 88.64 12.6999 88.6038 12.6353C88.5224 12.5047 88.481 12.3624 88.481 12.2047C88.481 11.5362 89.1158 10.869 90.82 10.869C92.0742 10.869 92.8436 11.2013 93.353 11.553C93.3556 11.553 93.3556 11.5556 93.3582 11.5582C93.4293 11.6047 93.4953 11.6539 93.5573 11.703C93.5948 11.7353 93.6284 11.7664 93.6582 11.8013C93.7539 11.8944 93.8379 11.9952 93.9116 12.1012C93.9362 12.1387 93.9607 12.1749 93.9827 12.2099C94.0512 12.3185 94.1081 12.4284 94.1573 12.5396H98.8328C98.803 12.4116 98.7707 12.2861 98.7371 12.1633C98.6957 12.0133 98.6492 11.8659 98.5975 11.7237C98.5212 11.5078 98.4333 11.2957 98.335 11.0888C98.2807 10.9737 98.2212 10.86 98.1604 10.7475C97.9781 10.4152 97.7699 10.101 97.5333 9.80098C96.4317 8.43298 94.3926 7.02878 90.8226 7.02878C86.1471 7.02878 83.6413 9.53462 83.6413 12.206C83.6413 14.0278 84.4778 15.2575 85.6752 16.0863C85.7437 16.1328 85.8122 16.1794 85.8846 16.2246C85.9532 16.2686 86.0243 16.3113 86.0967 16.3526C86.1264 16.3695 86.1562 16.3876 86.1846 16.4018C86.2958 16.4651 86.4083 16.5246 86.5234 16.5815C86.6139 16.6281 86.7083 16.6694 86.8014 16.7121C86.9371 16.7742 87.0742 16.8298 87.2138 16.8841C87.2138 16.8841 87.2164 16.8841 87.219 16.8867C87.7647 17.0961 88.34 17.2577 88.9154 17.3806C89.88 17.5926 90.8588 17.7788 91.7044 17.9935C92.9729 18.3128 93.9478 18.6943 94.1288 19.3317C94.1482 19.4028 94.1586 19.4765 94.1586 19.5528C94.1586 20.5885 93.4927 21.2221 91.3204 21.2221C91.2881 21.2221 91.2584 21.2208 91.2273 21.2208C91.0929 21.2182 90.9623 21.2131 90.8368 21.2027C90.8084 21.2001 90.7799 21.1975 90.7515 21.195C90.595 21.1794 90.4438 21.1587 90.3015 21.1316C89.8438 21.0437 89.465 20.9001 89.1482 20.7256C88.8327 20.5562 88.5844 20.3571 88.3853 20.1554C88.3853 20.1554 88.3836 20.1545 88.3801 20.1528C88.0802 19.8528 87.8151 19.4882 87.647 19.0537V19.0512H82.8047C83.1047 20.1528 83.6064 21.1562 84.3072 22.0561C84.5994 22.4401 84.9562 22.819 85.3842 23.1733C85.3842 23.1733 85.386 23.1741 85.3894 23.1758C85.4954 23.2612 85.6053 23.3478 85.7191 23.4344C85.8342 23.5211 85.957 23.6038 86.085 23.6853C86.1484 23.7241 86.2105 23.7642 86.2764 23.8029C86.3398 23.8443 86.407 23.8844 86.4729 23.918C86.6061 23.9917 86.7432 24.0654 86.8867 24.134C86.9682 24.1753 87.0535 24.2154 87.1401 24.2516C87.263 24.3059 87.3884 24.3576 87.519 24.4068C88.1086 24.6382 88.7706 24.818 89.5089 24.9279C89.6537 24.9498 89.8011 24.9692 89.9511 24.9873C90.3817 25.0365 90.8394 25.061 91.3191 25.061C92.7182 25.061 93.9401 24.8477 94.9706 24.4779C95.1969 24.3939 95.4154 24.3059 95.6274 24.2077C95.7335 24.1585 95.8369 24.1094 95.9377 24.0577C96.1369 23.9516 96.3282 23.8443 96.508 23.7254C96.8726 23.4913 97.1971 23.234 97.4816 22.9586C97.7673 22.6806 98.013 22.3858 98.2199 22.0755C98.2716 21.9966 98.3208 21.9152 98.3673 21.8363C98.4578 21.6785 98.5419 21.5169 98.6156 21.3514C98.869 20.776 98.9996 20.1657 98.9996 19.5515C98.9996 18.9374 98.9065 18.4034 98.7358 17.9211H98.7345Z"
        fill="#000000" />
</svg>